<?xml version="1.0" standalone="no"?>
<!DOCTYPE svg PUBLIC "-//W3C//DTD SVG 20010904//EN"
 "http://www.w3.org/TR/2001/REC-SVG-20010904/DTD/svg10.dtd">
<svg version="1.0" xmlns="http://www.w3.org/2000/svg"
 width="511.000000pt" height="511.000000pt" viewBox="0 0 511.000000 511.000000"
 preserveAspectRatio="xMidYMid meet">
<metadata>
Created by potrace 1.14, written by Peter Selinger 2001-2017
</metadata>
<g transform="translate(0.000000,511.000000) scale(0.100000,-0.100000)"
fill="#000000" stroke="none">
<path d="M2187 5103 c-4 -3 -21 -8 -37 -10 -17 -1 -44 -10 -60 -18 -17 -9 -33
-16 -37 -16 -5 -1 -27 -12 -50 -26 -24 -14 -43 -22 -43 -18 0 4 -6 2 -13 -4
-8 -6 -17 -8 -20 -4 -4 3 -7 0 -7 -7 0 -7 -3 -11 -6 -7 -3 3 -23 -1 -45 -8
-21 -8 -39 -12 -39 -8 0 3 -6 0 -14 -6 -8 -7 -22 -14 -32 -16 -34 -7 -125 -44
-140 -56 -8 -6 -14 -9 -14 -6 0 4 -29 -7 -65 -23 -36 -16 -65 -26 -65 -23 0 4
-5 2 -12 -5 -7 -7 -20 -12 -30 -12 -10 0 -18 -4 -18 -10 0 -5 -6 -10 -14 -10
-8 0 -27 -5 -43 -12 -15 -6 -30 -12 -33 -13 -18 -5 -77 -19 -90 -21 -22 -4
-55 -12 -55 -14 0 -1 -11 -3 -24 -6 -13 -2 -36 -13 -51 -24 -16 -11 -32 -20
-37 -20 -17 0 -120 -107 -156 -161 -52 -81 -67 -125 -71 -219 -1 -25 -4 -49
-7 -55 -5 -9 -4 -110 1 -110 1 0 3 -18 5 -40 4 -53 12 -84 26 -101 6 -8 9 -14
5 -14 -4 0 0 -13 8 -29 9 -16 13 -31 10 -34 -3 -3 4 -15 15 -26 19 -19 19 -23
7 -63 -7 -24 -15 -50 -17 -58 -2 -8 -8 -19 -12 -25 -5 -5 -18 -28 -30 -49 -12
-22 -29 -40 -37 -42 -8 -1 -28 -8 -45 -15 -16 -7 -39 -14 -50 -15 -11 -1 -23
-3 -27 -4 -5 -1 -11 -3 -15 -4 -58 -13 -147 -54 -183 -85 -14 -12 -40 -34 -57
-49 -18 -15 -33 -32 -33 -39 0 -6 -5 -13 -10 -15 -6 -2 -12 -13 -15 -26 -3
-12 -7 -31 -9 -42 -3 -11 -1 -20 5 -20 5 0 9 -6 9 -14 0 -26 23 -23 91 13 36
20 72 37 80 39 8 2 30 10 49 20 19 9 38 15 43 14 4 -1 7 3 7 9 0 5 5 7 10 4 6
-3 10 -2 10 3 0 5 12 14 28 21 15 7 34 19 42 27 32 29 62 60 90 93 27 31 30
32 45 17 17 -17 29 -56 16 -56 -4 0 -8 -10 -9 -22 -3 -49 -8 -74 -16 -86 -4
-7 -5 -16 -2 -19 3 -3 -2 -22 -11 -42 -13 -31 -17 -48 -25 -108 -1 -7 -4 -13
-8 -13 -4 0 -7 -6 -7 -12 0 -7 -4 -26 -8 -43 -3 -16 -8 -41 -10 -55 -2 -14 -4
-25 -5 -25 -11 0 -15 -139 -6 -185 4 -19 9 -44 11 -56 1 -12 9 -34 17 -50 28
-60 18 -81 -102 -204 -41 -43 -89 -95 -107 -116 -18 -22 -44 -52 -58 -69 -14
-16 -35 -47 -47 -67 -12 -21 -25 -38 -29 -38 -9 0 -21 -38 -23 -80 -3 -37 11
-80 26 -80 4 0 8 -7 8 -15 0 -31 98 -98 160 -110 63 -12 75 -13 97 -14 25 -1
24 -27 -2 -67 -8 -13 -15 -28 -15 -35 0 -6 -9 -24 -21 -40 -11 -16 -17 -29
-13 -29 3 0 1 -7 -6 -15 -7 -8 -9 -15 -6 -15 4 0 2 -8 -3 -18 -16 -30 46 -88
105 -98 13 -2 36 -6 51 -9 27 -4 43 -20 43 -42 0 -7 -3 -13 -7 -13 -9 0 -49
-91 -45 -103 1 -4 -2 -17 -8 -27 -12 -22 9 -74 39 -98 18 -14 59 -33 80 -36
23 -4 24 -21 5 -58 -10 -18 -19 -35 -19 -38 0 -3 -7 -16 -15 -30 -7 -14 -13
-26 -12 -27 1 -2 -5 -17 -13 -35 -7 -18 -11 -37 -8 -42 3 -5 7 -18 8 -30 1
-11 3 -26 4 -32 1 -16 70 -84 83 -84 6 0 19 -9 28 -20 10 -12 29 -23 42 -26
41 -8 137 -20 228 -28 25 -2 56 -7 70 -11 33 -9 102 -13 115 -6 6 3 30 6 55 7
25 1 45 2 45 4 0 1 18 4 40 6 22 2 51 6 65 7 14 2 42 9 63 16 67 23 76 5 51
-99 -3 -14 -6 -33 -5 -42 1 -36 1 -44 -2 -93 -2 -27 -1 -52 2 -55 10 -8 61
-115 61 -128 0 -6 5 -12 12 -12 6 0 8 -3 5 -6 -7 -8 52 -94 65 -94 4 0 8 -5 8
-12 0 -6 11 -26 26 -45 14 -18 23 -33 20 -33 -3 0 2 -15 12 -32 18 -33 18 -45
9 -211 -3 -52 0 -70 12 -81 28 -24 44 -23 112 10 36 18 111 51 165 74 54 23
128 56 164 73 36 16 70 32 75 33 15 5 148 53 170 63 11 5 34 14 50 21 17 8 35
14 40 16 6 1 28 10 50 20 22 10 43 17 48 16 4 -1 7 3 7 8 0 5 3 9 8 8 4 0 23
6 43 15 20 9 48 18 63 21 29 5 189 86 194 99 2 4 8 7 13 7 13 0 142 62 149 71
3 3 16 10 30 14 14 4 28 12 31 17 3 5 13 10 21 12 8 1 23 9 32 19 10 9 21 17
25 17 4 0 16 8 27 18 10 9 39 30 64 46 53 35 100 82 100 102 0 8 4 14 8 14 10
0 12 8 16 65 2 22 1 45 -2 50 -4 6 -8 17 -9 25 -15 79 -22 123 -29 175 -2 22
-7 56 -9 75 -3 19 -7 46 -9 60 -4 31 18 87 44 110 11 9 17 20 13 24 -3 3 -1 6
5 6 5 0 29 17 51 38 22 20 54 48 72 62 17 14 39 32 49 40 9 8 36 31 60 50 23
19 47 40 53 45 7 6 30 22 52 35 88 54 129 99 179 198 82 162 101 197 111 204
5 4 6 10 2 14 -4 4 -1 14 5 22 7 8 13 19 14 26 2 12 34 77 83 169 17 32 31 63
31 69 0 5 9 23 21 39 11 16 18 29 16 29 -3 0 8 32 24 71 16 39 29 77 29 85 0
8 4 14 8 14 5 0 9 6 9 13 0 6 4 28 8 47 10 47 13 180 4 180 -10 0 -5 18 20 75
13 28 24 58 26 67 2 9 9 27 16 40 12 22 15 34 23 103 2 17 5 30 6 30 3 0 11
81 11 110 0 28 -8 140 -11 140 -1 0 -3 8 -6 18 -15 62 -30 92 -61 123 -27 27
-34 47 -33 87 3 123 -10 158 -74 214 -18 15 -53 56 -77 89 -74 103 -73 101
-133 215 -68 130 -107 172 -198 216 -44 22 -54 31 -48 43 6 12 -6 29 -46 65
-31 28 -66 60 -79 72 -12 12 -25 19 -28 17 -3 -3 -10 4 -17 15 -6 12 -17 21
-25 21 -8 0 -15 5 -15 10 0 11 -190 108 -225 114 -11 2 -40 10 -65 17 -25 7
-52 14 -60 15 -8 1 -28 5 -45 9 -32 7 -72 14 -120 19 -16 2 -30 5 -30 6 0 3
-45 7 -140 14 -33 2 -60 5 -60 6 0 2 -13 4 -30 6 -61 6 -121 14 -155 19 -19 3
-46 7 -60 10 -23 3 -43 7 -110 21 -23 5 -41 8 -95 18 -18 3 -33 8 -75 24 -8 3
-17 6 -20 7 -3 1 -45 21 -95 44 -202 95 -272 121 -288 104z"/>
</g>
</svg>
